<?xml version="1.0" encoding="UTF-8"?>
<svg id="Layer_1" data-name="Layer 1" xmlns="http://www.w3.org/2000/svg" viewBox="0 0 272.14 252.28">
  <path d="M271.46,115.74c-2.09.35-4.16.36-6.14.13-1.98-.23-3.85-.68-5.58-1.28-2.97-1.03-5.64-2.41-8.41-3.67C243.81,48.43,190.64,0,126.14,0,56.47,0,0,56.47,0,126.14c0,46.08,24.73,86.38,61.62,108.39,2.92,1.74,5.91,3.37,8.98,4.87,8.5,4.18,17.54,7.42,26.99,9.61.82.19,1.65.37,2.48.55,2.25.47,4.52.88,6.81,1.24,1.43.22,2.86.42,4.31.59,1.64.19,3.29.35,4.94.48,3.3.26,6.64.4,10.01.4,4.69,0,9.31-.27,13.86-.77,40.19-4.4,74.69-27.67,94.48-60.76,2.92-4.88,5.52-9.97,7.77-15.25,6.45-15.16,10.03-31.84,10.03-49.36,0-.3-.02-.59-.02-.89,6.69-2.05,13.27-4.77,19.42-8.38.72-.42.56-1.26-.21-1.13Z" style="fill: #0370ba; stroke-width: 0px;"/>
  <g>
    <path d="M98.98,211.98c-.01-.11-.02-.22-.03-.33-.02.19,0,.31.03.33Z" style="fill: #0c5177; stroke-width: 0px;"/>
    <path d="M271.46,115.74c-2.09.35-4.16.36-6.14.13-1.98-.23-3.85-.68-5.58-1.28-2.97-1.03-5.64-2.41-8.41-3.67-1.35-.61-2.73-1.21-4.18-1.7-1.72-.58-3.53-1.01-5.43-1.29-1.89-.28-3.87-.43-5.89-.43-2.02,0-4.1.15-6.21.43-2.11.28-4.24.71-6.39,1.26-8.57,2.22-17.23,6.64-24.27,12.8-.33.29-.67.58-.99.88l-.97.9c-.64.61-1.28,1.22-1.92,1.82-.64.61-1.28,1.21-1.93,1.81-.65.6-1.29,1.2-1.96,1.78-.75.66-2.09,1.56-3.58,2.56-1.47,1.02-3.07,2.13-4.37,3.18-1.09.67-2.16,1.38-3.24,2.09-1.07.71-2.15,1.43-3.22,2.14-1.07.72-2.12,1.47-3.18,2.22-1.06.75-2.12,1.49-3.17,2.26-1.04.78-2.08,1.56-3.13,2.34-1.04.78-2.09,1.57-3.1,2.39-2.04,1.63-4.11,3.25-6.1,4.97l.19-.23c.47-.58.95-1.16,1.44-1.73.5-.56,1-1.12,1.51-1.67,1.01-1.11,2.05-2.2,3.09-3.29,1.06-1.07,2.13-2.13,3.19-3.2.53-.53,1.07-1.07,1.6-1.6.54-.53,1.07-1.05,1.61-1.58.88-.87,1.81-1.69,2.77-2.48l.72-.59.74-.57c.5-.38.99-.76,1.49-1.14,1-.76,1.99-1.52,2.97-2.31.98-.78,1.95-1.58,2.87-2.45.45-.43.9-.86,1.35-1.3,6.93-6.82,12.55-14.71,15.57-22.6,2.86-7.51,3.4-14.68,5.57-22.09.35-1.19.67-2.04.51-2.45-.16-.4-.81-.37-2.39.28-1.16.48-2.37,1.13-3.56,1.83-.6.35-1.19.71-1.77,1.07-.58.36-1.15.72-1.69,1.05-2.29,1.41-4.56,2.86-6.74,4.47-1.09.8-2.16,1.61-3.22,2.45-1.05.84-2.07,1.73-3.07,2.63-4.72,4.23-8.68,9.06-11.85,14.04-1.57,2.52-2.95,5.06-4.12,7.62-1.16,2.58-2.12,5.14-2.87,7.68-.63,2.19-1.13,4.34-1.57,6.48-.11.53-.22,1.07-.32,1.6l-.3,1.61c-.2,1.07-.4,2.14-.61,3.22-.2,1.04-.42,2.09-.66,3.14-.24,1.05-.49,2.12-.79,3.19-.3,1.06-.63,2.13-1.02,3.19-.19.53-.4,1.06-.63,1.59-.22.53-.45,1.07-.7,1.61-.49,1.05-1.04,2.09-1.64,3.12-.3.51-.61,1.02-.93,1.53-.32.5-.64,1.02-.97,1.53-1.08.98-2.16,1.96-3.23,2.93l-.81.74-.79.76-1.58,1.52-1.57,1.53-.78.77c-.26.26-.51.52-.77.78-1.02,1.05-2.04,2.1-3.05,3.15.64-.9,1.27-1.82,1.88-2.74.61-.92,1.18-1.87,1.76-2.78,1.13-1.85,2.12-3.72,2.89-5.57.71-1.49,1.31-3,1.8-4.5.24-.75.46-1.5.65-2.25.19-.74.37-1.47.51-2.21.28-1.46.46-2.91.52-4.32.07-1.41.02-2.8-.12-4.11-.57-5.28-2.88-9.8-7.01-12.4-2.11-1.33-4.62-2.18-6.83-3.39-4.2-2.29-7.3-5.89-8.82-10.53-.15-.45-.94-.24-1.32.35-.29.44-.56.89-.82,1.34-.27.45-.52.9-.77,1.36-.5.91-.97,1.81-1.41,2.72-.44.91-.84,1.81-1.21,2.71-.36.91-.69,1.82-.99,2.73-.59,1.8-1.05,3.58-1.36,5.31-.3,1.74-.46,3.45-.47,5.07,0,1.25.06,2.46.2,3.63.14,1.17.34,2.29.61,3.4.52,2.22,1.24,4.31,2.02,6.37.78,2.06,1.62,4.07,2.4,6.13.39,1.02.77,2.06,1.12,3.13.35,1.06.68,2.14.95,3.24.59,2.33.94,4.79,1.05,7.38.13,2.6.01,5.31-.4,8.07-.2,1.43-.46,2.88-.81,4.34-.18.73-.37,1.46-.59,2.19-.11.36-.23.73-.35,1.09-.12.37-.24.74-.36,1.11-.4,1.16-1.05,2.43-1.7,3.69-.47.66-.97,1.31-1.42,2,.08-.28.15-.55.23-.82.08-.27.15-.54.22-.81.14-.54.26-1.08.37-1.61.21-1.07.34-2.13.39-3.17.08-2.08-.12-4.01-.29-5.97-.08-.98-.16-1.96-.17-2.97,0-.5,0-1.01.03-1.52.03-.51.08-1.03.17-1.55.07-.44-.46-.46-.76-.03-1.06,1.6-2.36,3.1-3.63,4.62-.31.38-.63.76-.93,1.15-.3.39-.59.79-.87,1.19-.56.8-1.08,1.62-1.52,2.47-.39.75-.71,1.49-.96,2.22-.24.74-.42,1.47-.55,2.19-.26,1.44-.32,2.84-.28,4.2.02.68.06,1.35.13,2.02.07.67.15,1.34.23,2,.17,1.32.34,2.61.41,3.9.08,1.35.11,2.72-.04,4.19-.03.26-.13.65-.25,1.09-4.62,8.05-8.52,16.39-11.63,24.86-.01-.9-.03-1.79-.04-2.7,0-.46,0-.9.03-1.36.02-.45.05-.91.09-1.37.15-1.69.42-3.43.78-5.19.4-1.74.87-3.5,1.37-5.27.13-.44.26-.89.38-1.33l.42-1.32c.28-.88.57-1.77.85-2.65.28-.88.56-1.77.82-2.65.28-.88.56-1.74.82-2.62.23-.77.44-1.54.63-2.31.22-.87.41-1.74.59-2.6.19-.85.35-1.69.48-2.53.27-1.67.45-3.33.53-4.95.21-3.21.04-6.33-.49-9.32-.7-4.22-2.55-7.56-3.52-11.62-.86-3.71-1.58-7.53-2.04-11.54-.11-1.07-.67-3.36-.53-5.39.04-.53-.62-.48-1.01.08-.51.74-1.02,1.48-1.53,2.22-.51.74-1,1.5-1.51,2.25-1,1.5-1.99,3-2.98,4.49-.96,1.52-1.92,3.05-2.85,4.57-.47.76-.94,1.52-1.38,2.29-.44.78-.88,1.55-1.32,2.33-.43.78-.86,1.56-1.28,2.34l-.62,1.17c-.21.39-.41.78-.6,1.18-.78,1.59-1.52,3.19-2.23,4.79l-.52,1.2-.25.6-.24.61c-.31.82-.62,1.64-.91,2.46-.58,1.65-1.12,3.28-1.57,4.96-.46,1.74-.84,3.48-1.15,5.18-.15.85-.29,1.7-.39,2.54-.09.85-.16,1.68-.21,2.51-.1,1.65-.1,3.25,0,4.78.03.38.06.76.1,1.13.04.38.1.75.15,1.12.12.74.26,1.45.43,2.14.75,3.02,2.25,5.28,3.97,7.28,1.72,2,3.69,3.77,5.37,5.73,1.98,2.31,3.69,4.84,5.02,7.67.67,1.43,1.26,2.94,1.74,4.53.49,1.6.87,3.28,1.16,5.08-.85,3.05-1.56,6.11-2.15,9.15.82.19,1.65.37,2.48.55.7-3.69,1.56-7.39,2.65-11.08.38-.39.73-1,1.05-1.61.34-.61.65-1.24.96-1.67.14-.2.29-.4.44-.59.16-.19.31-.38.48-.57.32-.37.66-.73,1-1.06.69-.67,1.41-1.28,2.15-1.8.75-.52,1.49-.96,2.28-1.29.79-.33,1.57-.57,2.35-.7,1.99-.33,3.82-.01,5.59.5,1.77.51,3.5,1.21,5.29,1.66,1.11.29,2.24.47,3.4.59,1.16.11,2.34.15,3.53.11,1.19-.04,2.39-.15,3.6-.31.6-.08,1.21-.18,1.81-.3.3-.06.6-.12.9-.18.31-.06.61-.13.92-.19,1.23-.27,2.46-.59,3.68-.95.61-.18,1.22-.38,1.83-.58.6-.21,1.21-.42,1.83-.63,1.23-.43,2.45-.89,3.65-1.39.6-.25,1.19-.5,1.78-.76.59-.26,1.2-.51,1.8-.78,1.19-.53,2.36-1.09,3.53-1.67.58-.29,1.17-.59,1.76-.89.59-.3,1.17-.61,1.75-.92.58-.32,1.15-.64,1.72-.97.28-.17.57-.33.85-.5.29-.17.58-.34.87-.5,1.15-.68,2.27-1.39,3.36-2.14.55-.38,1.1-.75,1.65-1.13.55-.38,1.09-.78,1.62-1.18.53-.4,1.05-.81,1.56-1.24.51-.42,1.04-.84,1.55-1.28,1.02-.87,2-1.78,2.94-2.73.97-.94,1.9-1.92,2.78-2.95.6-.7.13-1.64-.7-1.41-1.07.29-2.16.57-3.25.81-.54.12-1.09.23-1.63.32-.27.05-.54.09-.81.13-.27.04-.53.08-.8.12-2.11.28-4.2.28-6.16-.2-1.31-.33-2.52-.87-3.67-1.5-1.15-.63-2.24-1.35-3.35-2.04-3.15-1.96-6.57-3.71-10.3-4.7-.93-.25-1.88-.45-2.86-.59-.97-.14-1.97-.24-2.96-.26-2-.03-4.07.19-6.23.74-.46.12-.93.25-1.39.4-.46.14-.91.31-1.37.49-.91.36-1.81.76-2.72,1.22-.9.45-1.81.95-2.71,1.49-.88.55-1.75,1.14-2.62,1.77-.87.62-1.74,1.28-2.59,1.97-.44.34-.84.7-1.26,1.06-.41.36-.83.73-1.24,1.1-.82.75-1.64,1.52-2.44,2.3-.41.39-.79.8-1.18,1.2-.38.41-.77.82-1.15,1.22-.58.63-1.17,1.26-1.75,1.91-.29.32-.58.65-.87.97-.28.33-.55.67-.83,1.01-1.1,1.35-2.17,2.73-3.2,4.16,4-9.14,8.93-18.03,14.63-26.49.62-.7,1.24-1.38,1.87-2.06.64-.67,1.31-1.31,1.97-1.95.67-.63,1.34-1.25,2.03-1.84.34-.3.69-.59,1.04-.87.36-.28.72-.55,1.08-.81,1.05-.76,2.04-1.43,2.98-1.98.95-.55,1.84-.97,2.72-1.2,1.76-.46,3.35-.23,4.86,1.07,1.45,1.24,2.47,2.94,3.77,4.34,1.68,1.81,3.8,3.13,6.07,4.19,2.07.98,4.28,1.74,6.57,2.29,1.14.27,2.32.51,3.51.7,1.19.19,2.4.32,3.63.41s2.45.12,3.69.11c1.25,0,2.52-.05,3.78-.15,1.27-.1,2.53-.25,3.8-.44,1.27-.19,2.57-.42,3.84-.71,1.21-.27,2.4-.58,3.6-.93,1.21-.34,2.42-.72,3.61-1.15,2.36-.86,4.78-1.83,7.09-2.98.58-.29,1.16-.58,1.75-.87.58-.3,1.16-.61,1.74-.92s1.14-.64,1.71-.98c.56-.34,1.13-.68,1.7-1.03,1.13-.7,2.24-1.43,3.32-2.2.54-.39,1.09-.78,1.63-1.17.54-.4,1.08-.8,1.6-1.22.42-.33.25-.88-.24-.8-2.47.42-4.93.06-7.04-.69-2.63-.94-4.86-2.5-7.11-3.99-2.02-1.34-4.11-2.64-6.27-3.83-2.15-1.19-4.39-2.27-6.73-3.17-1.17-.45-2.37-.85-3.6-1.21-.61-.18-1.24-.34-1.86-.48-.63-.15-1.26-.27-1.9-.38-2.55-.44-5.24-.63-8.07-.48-7.19.43-14.92,3.22-22.16,7.54-.92.56-1.83,1.13-2.74,1.73-.91.6-1.82,1.2-2.7,1.86-.88.65-1.76,1.32-2.63,2-.87.69-1.75,1.38-2.58,2.12-.49.43-.97.87-1.44,1.32,5.71-7.25,11.98-14.1,18.67-20.48.71-.4,1.42-.74,2.15-.99.73-.25,1.46-.44,2.17-.56,1.59-.26,3.09-.25,4.55-.12.73.07,1.44.15,2.17.26.72.1,1.44.22,2.16.31,1.44.19,2.95.31,4.49.21.77-.05,1.55-.16,2.33-.34.79-.17,1.59-.42,2.38-.76,1.05-.45,2.05-1.04,3.01-1.72.48-.34.96-.69,1.44-1.05.48-.36.95-.74,1.41-1.12.47-.39.45-.99-.04-1.06-2.05-.26-3.34-2.19-5.16-3.08-.84-.41-1.84-.6-2.9-.63-1.06-.02-2.18.12-3.31.34-.83.16-1.68.37-2.52.63-.84.25-1.7.54-2.53.9-1.67.7-3.34,1.56-4.97,2.55,2.44-2.08,4.87-4.17,7.39-6.14,2.49-2.01,5.06-3.91,7.61-5.81,2.68-.98,5.37-1.58,7.64-1.16,3.15.61,4.94,3.06,7.03,5.01,2.01,1.88,4.39,3.38,6.94,4.66,1.28.64,2.6,1.23,3.94,1.78,1.34.55,2.72,1.09,4.09,1.6,1.7.64,3.42,1.26,5.2,1.74.89.24,1.8.44,2.73.6.94.16,1.9.27,2.88.31,1.28.05,2.6,0,3.92-.17,1.33-.17,2.69-.42,4.04-.77.68-.17,1.35-.37,2.02-.59.34-.11.67-.22,1.01-.34.34-.12.68-.24,1.01-.36,1.35-.5,2.68-1.09,3.99-1.73.29-.15.59-.3.88-.45.3-.15.59-.3.88-.46.58-.31,1.16-.64,1.74-.97,1.15-.67,2.26-1.39,3.38-2.13,2.24-1.48,4.36-3.12,6.46-4.8.5-.41.39-1.04-.19-1.04-3.54-.03-6.72-.71-9.79-1.75-3.07-1.04-5.96-2.4-8.89-3.75-2.93-1.35-5.89-2.7-9.01-3.65-3.13-.95-6.47-1.54-10.13-1.33-.6.03-2.04.29-3.94.65-1.9.39-4.27.87-6.72,1.37-2.46.5-5.01,1.03-7.31,1.42-2.29.39-4.29.68-5.67.67,1.37-.9,2.73-1.81,4.12-2.67,1.39-.87,2.78-1.72,4.17-2.57,1.18-.49,2.38-.9,3.58-1.27,1.2-.37,2.39-.7,3.58-1,2.39-.58,4.79-.97,7.16-1.27,4.77-.57,9.46-.69,14.04-.68,8.54-.01,17.97-.94,27.42-3.06,2.71-.61,5.42-1.34,8.11-2.16,6.69-2.05,13.27-4.77,19.42-8.38.72-.42.56-1.26-.21-1.13ZM180.21,126.56c.49-.81.98-1.62,1.46-2.43l1.49-2.4c.91-1.45,1.78-2.93,2.62-4.39.84-1.46,1.65-2.93,2.41-4.41.38-.74.74-1.48,1.1-2.22.36-.73.71-1.47,1.04-2.21.67-1.48,1.28-2.96,1.84-4.44.63-1.68,1.12-3.39,1.79-5.1.67-1.71,1.53-3.42,2.94-5.01.05-.06.15-.07.17-.01.13.5.19,1.04.21,1.58.08,2.21-.24,4.49-.89,6.76-.65,2.27-1.63,4.53-2.82,6.82-1.2,2.28-2.64,4.53-4.22,6.79-.79,1.12-1.62,2.24-2.48,3.34-.85,1.11-1.73,2.22-2.63,3.3-.59.71-1.22,1.38-1.86,2.05-.63.68-1.26,1.37-1.83,2.09-.18.23-.49.13-.34-.11ZM100.1,206.39c-.02.13-.1.45-.21.88-.11.43-.26.95-.38,1.52-.26,1.12-.51,2.3-.56,2.86.01.11.02.22.03.33-.04-.02-.05-.14-.03-.33-.11-1.27-.34-2.46-.63-3.6-.15-.57-.31-1.12-.48-1.67-.17-.54-.36-1.08-.55-1.61-.77-2.12-1.66-4.17-2.32-6.38-.19-.63-.35-1.29-.49-1.95-.13-.66-.24-1.34-.32-2.04-.16-1.39-.22-2.86-.18-4.37.05-2.37.48-4.98,1.94-7.44-.11,3.72.71,6.8,1.69,9.87.48,1.53.99,3.03,1.42,4.58.43,1.55.78,3.14,1,4.87.18,1.5.31,2.83.06,4.48ZM121.79,215c.22-.18.43-.35.66-.52.23-.17.45-.33.68-.5.45-.33.91-.64,1.37-.94.92-.61,1.85-1.17,2.8-1.73.26-.22.53-.43.79-.64.27-.2.54-.39.81-.57.54-.36,1.07-.69,1.6-.99,1.06-.6,2.1-1.07,3.13-1.43.26-.09.51-.17.77-.25.26-.07.52-.14.78-.2.52-.12,1.03-.22,1.53-.29,1.01-.14,2.01-.19,2.98-.16,1.95.06,3.83.43,5.65,1,1.83.57,3.58,1.32,5.25,2.14.78.17,1.56.3,2.35.42,1.58.22,3.18.35,4.82.3-1,.26-1.99.47-2.99.63-1,.17-2,.29-2.99.38-.55-.02-1.11-.04-1.66-.07-.55-.03-1.09-.05-1.63-.08-1.09-.06-2.18-.13-3.27-.19-1.09-.06-2.19-.12-3.29-.17-.55-.02-1.11-.04-1.66-.05h-.83c-.27,0-.55,0-.83,0-2.21.03-4.45.19-6.75.6-.58.1-1.15.22-1.74.35-.57.14-1.15.3-1.73.47-1.16.35-2.34.78-3.54,1.3-.51.17-1.02.36-1.53.56-.26.1-.51.21-.77.32-.25.11-.5.23-.75.35v-.04ZM122.08,187.21c-.22.88-.49,1.75-.78,2.64-.28.89-.61,1.78-.97,2.66-.13.31-.26.61-.39.92.53-1.58.67-3.17.4-4.51-.37-1.94-1.18-3.56-.21-6.06.23-.58.47-1.16.73-1.74.25-.58.55-1.14.85-1.71-.09,1.06.19,1.93.38,2.86.29,1.42.42,3.28,0,4.95ZM157.02,177.01c.43-.28.9-.51,1.39-.72.98-.4,2.03-.68,2.88-.93.57-.17,1.14-.33,1.71-.46.28-.07.57-.13.85-.18.29-.05.57-.1.85-.13,1.13-.15,2.23-.19,3.27-.06,3.09.38,5.4,2.13,7.74,3.82,2.33,1.7,4.7,3.34,7.81,3.6-1.26.29-2.57.58-3.84.85-1.27.27-2.55.51-3.8.66-1.25.16-2.5.23-3.69.19-1.18-.03-2.33-.19-3.42-.51-1.95-.58-3.59-1.67-5.35-2.56-1.16-.59-2.41-1.02-3.68-1.41-1.27-.39-2.54-.72-3.79-1.14.28-.39.65-.72,1.07-1.01ZM139.91,164.39c-.17.01.02-.88.27-1.82.12-.47.26-.95.38-1.33.12-.38.21-.66.23-.75.37-1.29.74-2.58,1.04-3.86.17-.73.33-1.45.45-2.17.21-1.27.35-2.48.4-3.66.05-1.18,0-2.32-.14-3.42-.28-2.19-.92-4.18-1.93-5.88-.54-.91-1.24-1.69-1.9-2.5-.92-1.13-4.73-5.16-4.15-6.98.03-.09.08-.21.18-.27.05-.03.87.67,1.84,1.55.98.88,2.12,1.95,2.84,2.64,2.19,2.11,4.97,3.97,6,7.01.43,1.31.62,2.82.61,4.49-.01,1.67-.24,3.47-.68,5.31-.22.92-.5,1.86-.82,2.8-.31.95-.68,1.91-1.1,2.85-.83,1.9-1.88,3.75-3.09,5.56-.12.17-.29.38-.46.4ZM160.6,157.86c.91-.46,1.81-.97,2.73-1.36.8-.35,1.63-.61,2.45-.79.82-.18,1.62-.27,2.38-.26,1.53,0,2.9.4,3.92,1.25.13.11.32.27.26.37-.03.04-.1.08-.26.09-.25.02-.47-.06-.7-.08-1.68-.11-3.52.09-5.29.21-.81.05-1.6.1-2.41.18-.81.08-1.63.2-2.46.4-.28.07-.55.14-.8.14.03-.08.1-.11.18-.15ZM204.84,146.46c.97-.09,1.96-.24,2.96-.35,1.99-.23,3.95-.36,5.63.27.11.04.22.08.32.13,2.72,1.18,4.5,3.94,7.92,4.1-.7.16-1.41.33-2.13.48-.36.07-.71.14-1.06.2-.35.06-.7.12-1.04.16-1.37.18-2.69.19-3.85-.14-2.11-.59-3.83-1.66-5.59-2.64-1.76-.98-3.59-1.91-5.97-2.22.89.12,1.84.09,2.81,0ZM244.49,121.16c-7.47,3.03-15.09,4.46-21.5,3.89-1.3-.11-2.56-.3-3.87-.4-.84-.07-1.69-.1-2.58-.06-.44.02-.9.06-1.35.13-.23.03-.46.08-.69.12-.14.03-.61.22-.7.12-.08-.1,1.11-.82,1.25-.9,2.03-1.23,4.01-2.47,6.19-3.3,1.34-.5,2.72-.86,4.11-1.1,1.39-.24,2.77-.37,4.16-.4,2.77-.05,5.46.22,7.93.62.86.14,1.69.3,2.48.45.91.18,1.83.33,2.77.45.44.06,1.18.19,1.8.17.12,0,.11.14-.01.19Z" style="fill: #0c5177; stroke-width: 0px;"/>
  </g>
  <path d="M138.33,128.75c.37-1.43.99-3.29-.04-3.01-.48.13-1.8,1-10.05,8.24-.16.14-.3.26-.42.36-.05-.06-.11-.13-.17-.2l-.2-.22c-.41-.55-.94-1.93-1.39-3.6-.43-1.63-.72-3.19-.8-4.37l-.08-1.83,1.61-1.48c7.21-6.6,11.18-10.24,10.31-13.51-.12-.45-.36-.85-.63-1.29-.99-1.21-2.87-1.59-5.04-1.01l-1.07.34c-6.89,2.64-8.15,9.46-9.07,14.45l-.14.73c-4.06,3.52-13.42,11.76-16.55,15.59-.47.57-4.59,5.68-3.78,8.72.17.62.48,1.01.91,1.43,1.1,1.15,2.63,1.72,4.58,1.72,1.09,0,2.31-.18,3.66-.54,5.78-1.54,13.07-6.2,17.74-9.85,2.38.94,4.29,1.6,5.47,1.29,1.2-.32,1.45-1.57,1.24-2.36-.23-.87-.88-1.17-3.08-1.78,2.92-2.66,6.85-7.26,6.99-7.82ZM126.1,117.94c.45-1.29,1.13-2.91,1.64-3.67,1.28-1.93,2-2.52,4.05-3.31l1.04-.33c.07-.02.13-.03.19-.05-.92,1.57-4.74,5.4-6.92,7.36ZM124.71,136.77c-2.65,2.22-9.6,6.96-15.22,8.46-2.55.68-4.26.45-4.79.25-.09-3.09,13.43-15.51,16.62-18.15.01.05.03.1.04.15.26,1,.6,2.49.86,3.62.16.71.29,1.27.35,1.51.52,1.95.9,2.47,2.03,4.02l.11.15Z" style="fill: #fff; stroke-width: 0px;"/>
  <g>
    <path d="M66.98,81.47c-.19.45-.41.96-.67,1.53-2.11,4.63-4.49,9.62-7.06,14.83-6.62,12.71-12.21,25.84-16.61,39.04-.18.6-.27,1.12-.27,1.58,0,.35.05.67.16.95.22.57.64,1.11,1.24,1.59,1.18,1.04,2.46,1.87,3.77,2.46.7.33,1.15.43,1.8.26.47-.17.95-.55,1.48-1.17.8-.94,1.92-2.45,3.33-4.5.27-.43.57-.88.89-1.34,7.98-11.5,17.77-23.59,29.08-35.92,11.31-12.33,22.58-22.85,33.49-31.26.61-.43.78-.48.8-.48.21-.04.28-.05.23-.02-.48,1.99-3.45,8.51-8.81,19.38-5.32,10.78-11.38,22.94-18.02,36.14-4.85,9.62-9.19,18.29-12.9,25.77-3.72,7.51-6.2,12.69-7.37,15.43-.15.46-.23.87-.23,1.22,0,.42.09.78.29,1.09.35.5.78.89,1.28,1.14.48.26,1.11.52,1.86.77.78.27,1.41.4,1.9.4h.22c.48-.12.94-.41,1.36-.88.39-.44.83-1.15,1.35-2.18l43.9-88.24c.65-1.36,1.04-2.6,1.15-3.67.11-1.04.17-1.92.17-2.62,0-.29-.01-.57-.04-.82-.14-1.88-.97-3.64-2.45-5.22-1.5-1.6-3.1-2.41-4.77-2.41-.26,0-.54.01-.92.06-5.48,1.66-12.74,6.9-21.59,15.56-8.81,8.63-17.46,18.04-25.7,27.97-6.95,8.36-12.36,15.28-16.14,20.63,1.2-3.25,2.95-7.35,5.23-12.24,3.12-6.7,6.36-13.48,9.64-20.15,2.69-5.48,4.85-9.99,6.43-13.4.32-.79.49-1.65.49-2.52,0-.73-.12-1.5-.35-2.31-.48-1.7-1.24-3.21-2.27-4.49-1.06-1.32-2.17-2.09-3.27-2.26-.72-.17-1.36.03-1.87.38-.52.3-1.08.82-1.72,1.58-12,13.75-24.97,31.5-38.53,52.73-8.18,12.8-15.44,24.94-21.76,36.33.97,3.24,2.05,6.43,3.27,9.56,17.68-30.75,37.28-61.05,58.41-90.16.02-.03.05-.06.07-.09Z" style="fill: #fff; stroke-width: 0px;"/>
    <path d="M206.96,68.82l-.62-.62c-.14-.14-.32-.29-.52-.43-.28-.22-.54-.38-.8-.49-.75-.33-1.19-.22-1.8.17-.74.45-1.71,1.57-2.97,3.45-12.96,3.36-24.68,7.97-34.83,13.7-2.75,1.63-4.63,3-5.73,4.19-1.02,1.05-1.49,1.85-1.49,2.51,0,.12.02.23.05.33.06.38.33,1.09,1.49,1.09.16,0,.34-.02.56-.05.76-.17,2.05-.7,3.96-1.59.41-.19.86-.4,1.35-.62,9.69-4.4,19.48-8.21,29.11-11.32-10.11,14.82-20.25,30.53-30.15,46.72-4.83,1.19-9.01,2.41-12.45,3.63-2.41.87-4.13,1.56-5.26,2.11-.64.29-1.13.57-1.51.86-.44.33-.71.77-.82,1.29-.03.17-.05.33-.05.46,0,.4.06.82.18,1.24.17.61.38,1.14.6,1.56.43.9.86,1.37,1.31,1.48.13.04.29.06.47.06h.27c.22-.04.54-.12,1.02-.28.32-.13.71-.28,1.19-.45.82-.33,1.84-.71,3.07-1.15,2.07-.74,4.38-1.5,6.87-2.27-8.02,13.61-15.08,27.24-21,40.54-1.59,3.68-2.6,6.37-2.98,7.94-.24.74-.35,1.34-.35,1.83v.12c0,.55.22,1.09.65,1.59.4.45.92.95,1.53,1.47.61.51,1.19.98,1.77,1.41l.21.14c.51.42.93.69,1.26.82.35.13.61.2.81.2.4,0,.82-.15,1.25-.45,9.42-6.31,22.51-12.69,38.9-18.94,16.39-6.25,32.01-9.73,46.41-10.35,2.09-.04,2.35-.19,2.49-.27.13-.07.53-.3.53-.7,0-.32-.21-.6-.62-.83-.43-.23-1.02-.46-1.79-.69-.74-.22-1.45-.4-2.12-.51-2.87-.36-5.88-.54-8.94-.54-10.09,0-21.52,1.92-33.95,5.7-16.17,4.91-29.48,10.94-39.56,17.92.07-.13.15-.27.25-.44.44-.75.99-1.79,1.62-3.08,7.52-15.71,15.94-31.2,25.01-46.07,6.56-1.75,13.15-3.23,19.59-4.43,6.45-1.2,11.96-1.83,16.39-1.89,1.33,0,2.51.03,3.52.08.77.03,1.4.04,1.87.04.51,0,1.59,0,1.59-.76,0-.31-.22-.53-.34-.61-.25-.34-.89-.87-3.52-1.7-4.15-1.03-9.59-1.33-15.86-.88-5.96.39-12.18,1.19-18.5,2.39,6.31-10.21,12.9-20.69,19.63-31.16,3.47-5.43,6.96-10.92,10.5-16.46,11.11-3.05,22.16-5.18,33.03-6.41-.81-1.61-1.65-3.19-2.53-4.76-8.97.79-18.65,2.3-28.94,4.52-.12-.12-.23-.25-.33-.37Z" style="fill: #fff; stroke-width: 0px;"/>
  </g>
</svg>