<?xml version="1.0" encoding="UTF-8"?>
<svg id="Layer_1" data-name="Layer 1" xmlns="http://www.w3.org/2000/svg" version="1.1" viewBox="0 0 39.8 43.8">
  <defs>
    <style>
      .cls-1 {
        fill: #6079b8;
      }

      .cls-1, .cls-2, .cls-3, .cls-4, .cls-5, .cls-6, .cls-7, .cls-8 {
        stroke-width: 0px;
      }

      .cls-2 {
        fill: #9eadd5;
      }

      .cls-3 {
        fill: #f3833c;
      }

      .cls-4 {
        fill: #a1cd62;
      }

      .cls-5 {
        fill: #9faed6;
      }

      .cls-6 {
        fill: #d1b696;
      }

      .cls-7 {
        fill: #73ae9c;
      }

      .cls-8 {
        fill: #da7891;
      }
    </style>
  </defs>
  <path class="cls-1" d="M15,39c-1.1,0-2.4,1-2.3,2.5,0,1.3,1,2.3,2.3,2.3,1.5.1,2.5-1.2,2.5-2.4,0-1.2-1.2-2.5-2.5-2.4Z"/>
  <path class="cls-1" d="M30.1,38.7c-1.5-.1-2.4,1.2-2.4,2.3,0,1.2.8,2.4,2.4,2.4,1.3,0,2.4-1.1,2.4-2.4,0-1.2-1.1-2.5-2.4-2.3Z"/>
  <path class="cls-3" d="M36.8,18.7c-.1-.1-.3,0-.4,0-1.2,0-2.3,0-3.5.1-1.8.1-3.5,0-5.3.1-2.7,0-5.5.2-8.2.2-2.3,0-4.5.2-6.8.2-1.2,0-2.4,0-3.7.2,0,0,0,0,0,0,0,0,0,0,0,0,0,0,0,0,0,0,0,.3,0,.6,0,1,.2,0,.5,0,.7,0,.3,0,.6,0,.9,0,0,0,0,0,0,0,.1.8.6,1.5.6,2.4h-2.1c-.1-.1-.2-.3-.2-.4,0-.3-.1-.6-.2-.9-.2-.7-.4-1.4-.6-2.1-.3-1-.5-1.9-.7-2.9,0-.2-.2-.4-.4-.4-.6-.1-1.1-.4-1.7-.6-.8-.2-1.5-.6-2.3-.8-.3,0-.7-.1-.9-.4-.2-.2-.4-.3-.6-.4-.5-.2-.7,0-1.1.3-.3.3-.3.8-.2,1.2.3.6,1.2.8,1.8.2.3,0,.5,0,.7.1,1,.4,2.1.7,3.1,1.1.2,0,.5.1.6.4.2.5.4.9.4,1.4,0,.6.3,1.1.4,1.7.2.9.6,1.8.8,2.7.2,1.2.6,2.3.9,3.4.3,1.3.7,2.7,1.1,4,.2.6.4,1.1.5,1.7,0,.5.3,1,.4,1.5.1.5.2,1.1.4,1.6.3.9.5,1.9.8,2.8h0s0,0,0,0c0,.2,0,.4.2.5,2,.1,4-.2,6-.1h0s0,0,0,0c.4,0,.7,0,1.1,0,.2,0,.4,0,.5,0,.2,0,.3,0,.5,0,1.5-.2,2.9,0,4.4-.1,0,0,.2,0,.2,0,1.8,0,3.5,0,5.3-.1.7,0,1.4,0,2.1,0,.1,0,.3,0,.4-.1,0-.3,0-.5,0-.8-.1-.1-.3-.1-.4-.1-1.3,0-2.5,0-3.8,0-2.8.2-5.6,0-8.4.2-1.9,0-3.9,0-5.8,0-.2,0-.4,0-.7,0-.3,0-.6,0-.7-.1-.2-.8-.4-1.6-.6-2.5.6,0,1.1,0,1.6-.1,2.1-.1,4.2,0,6.3-.2,2.2-.2,4.5,0,6.8-.2,1.7-.1,3.5,0,5.2,0,.4,0,.7-.2,1.1-.1,0-.3.1-.4.1-.7,0-.7.3-1.3.4-1.9.2-.9.4-1.9.6-2.8,0-.3,0-.6.2-.9.2-.6.3-1.2.4-1.8.1-.6.2-1.2.4-1.8.3-.9.4-1.8.6-2.7.2-.6.3-1.2.4-1.8,0-.5.3-.9.2-1.4ZM31.6,19.9c.2.8.6,1.5.7,2.4h-2.2c-.3-.8-.5-1.6-.8-2.4h2.3ZM21.6,23.7c.6-.1,3.2-.1,3.3,0,.4,1.4.9,2.8,1.4,4.3-1.1,0-2.2,0-3.2.1-.5-1.5-1-3-1.4-4.4ZM22,28.1c-.1.1-.3,0-.4,0-.9,0-1.9,0-2.8.1-.3,0-.4,0-.5-.4-.4-1.2-.7-2.4-1.2-3.6,0-.1,0-.3,0-.5,1.2,0,2.4-.2,3.6-.1.5,1.5.9,2.9,1.4,4.4ZM25.9,23.5h3.5c.5,1.4.9,2.9,1.4,4.4-1.2.1-2.4,0-3.5.1-.5-1.5-.9-2.9-1.4-4.5ZM28.6,22.5c-1,0-2,0-3,0-.3-.8-.6-1.6-.8-2.4,0,0,0,0,0,0,1,0,2,0,3,0,.2,0,.4,0,.6.2.1.7.4,1.4.6,2.1,0,.1-.2.2-.4.2ZM24.9,20s0,0,0,0c0,0,0,0,0,0ZM23.7,20c.3.8.5,1.6.8,2.4-1.1.2-2.1.2-3.2.2-.3-.8-.5-1.6-.8-2.5,1.1.1,2.1-.1,3.2,0ZM16,20.2c1.1,0,2.3,0,3.4,0,0,0,0,0,0,0,.3.8.5,1.6.8,2.4-1.2,0-2.4.1-3.6.2-.4-.8-.6-1.6-.8-2.5h0s0,0,0,0c0-.1,0-.2.2-.2ZM17.2,28.3h-3.4c-.4-1.4-.8-2.8-1.2-4.3,1.1-.2,2.1-.1,3.2-.2.6,1.4.9,2.9,1.4,4.5ZM14.8,20.4c.3.8.5,1.6.8,2.4-1.1,0-2.1,0-3.1.2-.4-.8-.6-1.7-.8-2.6h3.2ZM9.2,24h2.3c.4,1.4.8,2.8,1.2,4.2,0,.1-.2.2-.4.2-.6,0-1.2,0-2,0-.4-1.4-.8-2.9-1.2-4.4ZM12,34.1c-.5-1.5-.8-3-1.3-4.6.8,0,1.6,0,2.4,0,.4,1.5.9,3,1.3,4.6-.9,0-1.6.1-2.4,0ZM15.4,33.9c-.4-1.4-.9-2.9-1.3-4.5,1.2,0,2.3-.1,3.4,0,.5,1.5.9,3,1.4,4.6h-3.6ZM20,33.8c-.5-1.5-.9-3-1.4-4.5,1.2-.2,2.4,0,3.7-.2.5,1.5,1,3.1,1.5,4.6h-3.7ZM27.9,33.6c-1,0-2,0-3.1.2-.4-1.3-.8-2.5-1.2-3.8h0s0,0,0,0c0-.3-.3-.5-.1-.8,0,0,0,0,0,0,.9,0,1.8,0,2.7,0,.2,0,.3,0,.4.2.2.7.4,1.3.6,2,.2.6.4,1.3.6,2,0,.1,0,.2,0,.4ZM32.3,33.5c-1.1,0-2.1.1-3.2,0-.6-1.5-.9-3-1.5-4.5,0-.1.2,0,.3-.1.9,0,1.9,0,2.8,0,.3,0,.4.1.5.4.3,1,.6,1.9.9,2.9.1.4.4.9.1,1.4ZM32.9,30.9c-.2-.7-.6-1.3-.6-2h1.2c0,.7-.2,1.4-.6,2ZM33.7,27.8c-.5,0-1,0-1.4.1-.4,0-.5-.2-.6-.5,0-.4-.2-.9-.4-1.3-.2-.7-.4-1.4-.6-2,0-.2-.1-.4-.2-.7h2.3c.4,1.2.7,2.3,1.1,3.5.1.4,0,.6-.1.9ZM34.4,24.9s0,0,0,0c-.2-.5-.4-1-.5-1.6.3,0,.6,0,1,0-.1.6-.2,1.1-.4,1.6ZM35,22.1s-.1.1-.2.2h-1.4c-.4-.7-.5-1.6-.9-2.4,1,0,1.9-.2,2.9-.1-.2.8-.3,1.6-.5,2.4Z"/>
  <path class="cls-4" d="M24.9,5c0,.2,0,.4.1.5h0c.2,0,.4.1.5.3.2.4.2.8.5,1,0,.8-.2,1.6.3,2.2,0,.2-.2.1-.3.1,0,0-.1.2-.2.2-.1.6.1,1.2-.2,1.7.4.2.8.4,1.3.5.1-.1.2-.3.2-.4,0-.2-.3-.4-.4-.7.2,0,.3,0,.5,0,.4-1.4.4-2.8.6-4.3.1,0,.3,0,.3.1.1.7-.2,1.4,0,2.1.3-.4.6-.7.9-1.1,0,0,.1.1,0,.2-.2.7-.5,1.3-1,1.8-.1.1-.3.2-.3.4,0,.6,0,1.2-.1,1.8.7-.2,1.2-.7,1.7-1.1.1.2,0,.4,0,.5-.3.4-.5.8-.8,1.1-.1.1-.1.3,0,.4.6.5.1,1.1,0,1.6-.1.5-.3,1.1-.4,1.7.2,0,.3,0,.4,0,0,0,0,0,0,0,0,0,0,0,0,0,.3-.6.4-1.3,1.2-1.6.3,0,.5-.4.4-.8,0,0,0-.1-.1-.2,0-.1.2-.3,0-.5.3-.2.5-.4.9-.5,0-.1,0-.3,0-.3,0-.5.3-.7.4-1,.1,0,.3,0,.5-.1.1-.1.2-.4.5-.4h0c.3-.3.4-.6.3-.9,0-.4.2-.9,0-1.3,0,0-.2-.2-.3-.3,0-.3,0-.5,0-.8,0,0,0,0,0,0-.3,0-.2-.3-.2-.5.2-.3.5-.4.7-.6.1-.3-.1-.5-.2-.7-.2-.1-.4-.2-.5-.3,0-.5,0-.9-.1-1.4-.3,0-.4-.3-.8-.3-.2,0-.4.4-.6.2-.2.2-.3.5-.5.8-.3.1-.4,0-.4-.3,0-.3.1-.6,0-.9-.1-.2-.3-.1-.5,0-.3.1-.6,0-.9-.2-.2-.2-.4-.3-.6-.5,0,0-.2-.1-.3,0-.2.2-.4.1-.7.1-.2,0-.4,0-.5.2-.4.5-.8,1-1.1,1.5.2.2.1.5.1.8Z"/>
  <path class="cls-8" d="M11.3,18.9c.5-.1.9,0,1.4-.1.6,0,1.2,0,1.7,0,.4,0,.7,0,1.1-.1,0,0,0,0,0,0,0,0,0,0,0,0,.8-.4.8-1.2.9-2,.1-.6,0-1.2,0-1.8-.2-1-.6-1.9-1.3-2.7-.6-.6-1.9-.9-2.6-.5-.4.2-.7.6-1.1.9-.4-.7-.9-1.1-1.7-1.2-.1.1,0,.3,0,.4.2.2.4.2.6.3.2.1.3.3.5.4,0,.1,0,.3,0,.4-.3,0-.5.1-.7.2-.9.3-1.7,1.3-1.7,2.3,0,1,.5,1.9,1.1,2.6.5.6.9,1.2,1.8,1Z"/>
  <path class="cls-6" d="M38.8,5.8c-1.3.7-2.1,1.8-3,2.8-.5.6-.9,1.3-1.3,2-.3.5-.7,1.1-.9,1.7.6.4,1.2.3,1.8.4,0,.4-.2.6-.5.6-.3,0-.7,0-1,0-.4,0-.9,0-1.3.3-.4.4-.6.9-.8,1.4-.2.6.1.8.7.8.4,0,.8,0,1.2,0-.1.5-.4.6-.8.7-.6.1-1.2.3-1.8.4-.6.1-.6.7-1,1.1.2,0,.2,0,.3,0,1.6,0,3.1-.1,4.7,0,.4-.9.9-1.7,1.3-2.5.5-.9.9-1.9,1.4-2.8.3-.7.7-1.3.9-2,.2-.6.5-1.3.7-1.9.2-.8.4-1.5.3-2.3,0-.7-.5-1-1-.8Z"/>
  <path class="cls-3" d="M15,6.1c0,.1-.1.1-.2.2-.5.3-1,.5-1.1,1.2,0,.6.1,1.2.4,1.7.3.6.6,1.1.9,1.7.5,1,1.1,2,1.7,2.9.5.1.8-.2,1.1-.3.1,0,.1.2.2.3-.3.2-.6.4-.9.6.8,1.2,1.4,2.5,2.2,3.8.3-.4.3-.9.4-1.3.2-.6.3-1.1.4-1.7.1-.4.2-.8.2-1.2-.1-.8-.4-1.7-.6-2.5-.3,0-.5,0-.8,0,0-.4.5-.2.6-.6-.2-.4-.2-.9-.4-1.4-.7,0-1.3.5-2.1.3.3-.2.5-.4.7-.4.4-.3.9-.3,1.2-.6-.2-.7-.4-1.5-.8-2.1-.3-.5-.7-1-1.4-.9-.4,0-.7,0-1.1,0-.2.1-.4.3-.7.3Z"/>
  <path class="cls-2" d="M27.1,16.8c.2-.8.4-1.5.6-2.3,0-.3.3-.6.1-.9-.7,0-1.4.1-2,0-.2,0-.4,0-.6,0-.1,0-.3,0-.3-.2,0,0,0,0,0,0-1.2-.2-2.2-.7-3.4-1.4-.5,2.2-1,4.4-1.6,6.5h2.7c0-.2.2-.1.3-.1,1.1,0,2.3,0,3.4,0,.2,0,.4,0,.6-.1,0,0,0,0,0,0,0-.5.2-.9.3-1.4Z"/>
  <path class="cls-4" d="M23.5,10.1c0-1-.7-1.4-1.3-2,.2-.2.4,0,.6,0,0,0,.2,0,.2,0,0-.8-.3-1.5-.9-2,.5-.1,1.2.8,1.2,1.4h0c0,.3,0,.6.1.9.2.2.5.4.6.7.2,0,.1-.2.1-.3,0-.5,0-.9,0-1.4.1.3.3.7.3,1.1,0,0,0,0,0,0,0,0,0,0,0,0,.1.6,0,1.3,0,1.9,0,.3,0,.5.3.6.3,0,.4-.1.5-.3,0-.5,0-1,.1-1.5.1,0,.3,0,.4-.2-.2-.5-.4-1-.4-1.6,0-.2.2-.4.1-.6,0,0-.2,0-.3-.1-.1-.3-.3-.7-.3-1.1h0,0c-.1-.1-.1-.3-.1-.5,0-.3,0-.5-.1-.8-.4,0-.9.2-1.2-.3,0,0,0-.2-.1-.3-.2,0-.4.2-.6.2-.6-.1-1,.1-1.3.5-.2.2-.5.6-.2,1,0,.1,0,.3,0,.5-.1.3-.3.7-.4,1-.1.3-.5.4-.6.6-.1.4-.2.9-.2,1.4,1.4-.4,2.5,0,3.3,1.2Z"/>
  <path class="cls-4" d="M32.4,8c.2.5.5.9.2,1.5,0,0,0,.1,0,.2.2.8-.4,1.4-.6,2.1-.2,0-.3-.2-.5-.1-.1.1-.2.3-.3.5-.1-.2-.2-.2-.3-.3,0-.2.2-.3.2-.5.2-.2.4,0,.6-.1,0,0,0,0,0,0,0-.3.2-.5.2-.8-.3,0-.3.2-.5.4-.2,0-.3,0-.5.1-.1.3-.4.5-.4,1,0,0,0,.1,0,.3-.3,0-.6.4-.9.5.1.2,0,.3,0,.5,0,0,0,.2.1.2.3-.4.6-.8,1-1.1.1,0,.2-.2.4,0,0,.7-.8.7-1,1.4,0,.4-.4.8-.9.9-.3.2-.4.6-.6.9-.1.1-.2.3-.4.3h0s0,0,0,0c0,0,0,0,0,0,0,.2-.1.2-.2.3-.2.2-.5.3-.2.7.1,0,.3-.1.4-.2.5,0,.9-.3,1.3-.6.6-.4,1.1-.9,1.6-1.5.8-.8,1.4-1.7,1.9-2.7.5-.8.9-1.7,1.5-2.5.2-.4.6-.7.7-1.1-.1,0-.2-.1-.3-.1-.2,0-.3.1-.5,0,0-.2,0-.4-.2-.6-.2,0-.4,0-.6-.2-.2.1-.3.2-.4.3,0-.5-.4-.6-.7-.8-.2,0-.2.2-.4.1,0,.3,0,.6.2.9Z"/>
  <path class="cls-7" d="M11.5,5.4c.3,0,.4-.2.6-.3.3,0,.6,0,.9.3,0,.1-.1.2-.2.4.5.2.6-.3.9-.4.2,0,.1.2.3.3.5-.2.9,0,1,.5,0,0,0,0,0,0,.3,0,.5-.1.7-.3-.2-.3,0-.6,0-1,0-.7.3-1.5-.2-2.3-.1,0-.2,0-.4,0,0-.6,0-1.1-.4-1.6-.2,0-.3,0-.4,0-.2-.4-.1-.8-.4-1.1-.2,0-.1.2-.2.3-.7-.3-1.4-.5-2.2-.1,0,.4.3.5.6.6.2.1.5.2.7.4,0,.1-.2.2-.1.4.1.2.4.2.6.4.3.2.7.2.6.6,0,0-.2.1-.2.2,0,.4.4.6.5,1-.2,0-.3-.1-.4,0-.1,0-.1.3-.3.3-.2,0-.4-.3-.6-.3-.3.1,0,.4-.1.5-.6.3-1.2.5-1.2,1.2Z"/>
  <path class="cls-5" d="M27.7,12.8c-.8-1.1-4.9-2-5.9-1.4,1.3,1.2,5.1,2,5.9,1.4Z"/>
</svg>