<?xml version="1.0" encoding="UTF-8"?>
<svg id="Layer_1" data-name="Layer 1" xmlns="http://www.w3.org/2000/svg" viewBox="0 0 264 264">
  <circle cx="132" cy="132" r="132" style="fill: #0d111d; stroke-width: 0px;"/>
  <path d="M64.64,78.16h53.8c13.19,0,22.48,3.3,28.63,9.44,4.2,4.2,6.74,9.74,6.74,16.94v.3c0,12.14-6.89,19.33-16.19,23.38,12.74,4.2,20.83,11.39,20.83,25.63v.3c0,17.98-14.69,28.93-39.72,28.93h-54.1v-104.91ZM111.25,119.98c8.84,0,13.79-3,13.79-9.14v-.3c0-5.69-4.5-8.99-13.19-8.99h-18.88v18.43h18.28ZM115.45,159.69c8.84,0,13.94-3.45,13.94-9.59v-.3c0-5.7-4.5-9.44-14.24-9.44h-22.18v19.33h22.48Z" style="fill: #fff; stroke-width: 0px;"/>
  <circle cx="192.5" cy="109.5" r="15.5" style="fill: #fff; stroke-width: 0px;"/>
  <circle cx="192.5" cy="157.5" r="15.5" style="fill: #fff; stroke-width: 0px;"/>
</svg>