<svg width="1024" height="169" viewBox="0 0 1024 169" fill="none" xmlns="http://www.w3.org/2000/svg">
<g clip-path="url(#clip0_108_42)">
<g filter="url(#filter0_d_108_42)">
<path d="M264.358 168.416C261.294 168.416 258.545 167.877 256.112 166.8C253.678 165.677 251.74 164.173 250.298 162.287C248.901 160.401 248.135 158.312 248 156.022H257.531C257.711 157.459 258.41 158.649 259.627 159.592C260.888 160.535 262.443 161.007 264.291 161.007C266.093 161.007 267.49 160.648 268.482 159.929C269.518 159.211 270.036 158.29 270.036 157.167C270.036 155.955 269.405 155.057 268.144 154.473C266.927 153.844 264.967 153.171 262.263 152.452C259.469 151.778 257.171 151.082 255.368 150.364C253.61 149.645 252.078 148.545 250.771 147.063C249.51 145.581 248.879 143.583 248.879 141.068C248.879 139.003 249.465 137.116 250.636 135.41C251.853 133.704 253.565 132.356 255.774 131.368C258.027 130.38 260.663 129.887 263.682 129.887C268.144 129.887 271.704 131.009 274.363 133.255C277.021 135.455 278.486 138.441 278.756 142.213H269.698C269.563 140.731 268.932 139.564 267.806 138.711C266.724 137.813 265.26 137.363 263.412 137.363C261.699 137.363 260.37 137.678 259.424 138.307C258.522 138.935 258.072 139.811 258.072 140.934C258.072 142.191 258.703 143.156 259.965 143.83C261.226 144.459 263.187 145.11 265.845 145.783C268.549 146.457 270.78 147.153 272.537 147.872C274.295 148.59 275.805 149.713 277.066 151.24C278.373 152.722 279.049 154.697 279.094 157.167C279.094 159.323 278.486 161.254 277.269 162.96C276.097 164.667 274.385 166.014 272.132 167.002C269.924 167.945 267.333 168.416 264.358 168.416Z" fill="white"/>
<path d="M303.491 168.416C299.886 168.416 296.641 167.63 293.757 166.059C290.873 164.442 288.597 162.174 286.93 159.255C285.308 156.336 284.497 152.968 284.497 149.151C284.497 145.334 285.33 141.966 286.998 139.047C288.71 136.129 291.031 133.883 293.96 132.311C296.889 130.695 300.156 129.887 303.762 129.887C307.367 129.887 310.634 130.695 313.563 132.311C316.492 133.883 318.79 136.129 320.458 139.047C322.17 141.966 323.026 145.334 323.026 149.151C323.026 152.968 322.148 156.336 320.39 159.255C318.678 162.174 316.334 164.442 313.36 166.059C310.431 167.63 307.141 168.416 303.491 168.416ZM303.491 160.198C305.204 160.198 306.803 159.794 308.291 158.986C309.823 158.133 311.039 156.875 311.941 155.214C312.842 153.552 313.293 151.531 313.293 149.151C313.293 145.604 312.346 142.887 310.454 141.001C308.606 139.07 306.33 138.104 303.626 138.104C300.923 138.104 298.647 139.07 296.799 141.001C294.997 142.887 294.095 145.604 294.095 149.151C294.095 152.699 294.974 155.438 296.732 157.369C298.534 159.255 300.787 160.198 303.491 160.198Z" fill="white"/>
<path d="M347.138 138.239H340.581V167.81H330.982V138.239H326.724V130.493H330.982V128.607C330.982 124.026 332.289 120.658 334.903 118.503C337.517 116.347 341.46 115.337 346.732 115.472V123.42C344.434 123.375 342.834 123.757 341.933 124.565C341.032 125.373 340.581 126.833 340.581 128.943V130.493H347.138V138.239Z" fill="white"/>
<path d="M364.289 138.239V156.292C364.289 157.549 364.582 158.47 365.167 159.053C365.798 159.592 366.835 159.862 368.277 159.862H372.671V167.81H366.722C358.746 167.81 354.758 163.948 354.758 156.224V138.239H350.296V130.493H354.758V121.264H364.289V130.493H372.671V138.239H364.289Z" fill="white"/>
<path d="M431.391 130.493L420.44 167.81H410.233L403.406 141.742L396.579 167.81H386.304L375.286 130.493H384.885L391.509 158.919L398.675 130.493H408.679L415.709 158.851L422.333 130.493H431.391Z" fill="white"/>
<path d="M434.078 149.017C434.078 145.245 434.822 141.899 436.309 138.98C437.841 136.061 439.891 133.816 442.46 132.244C445.074 130.672 447.98 129.887 451.18 129.887C453.974 129.887 456.407 130.448 458.48 131.571C460.598 132.693 462.288 134.108 463.55 135.814V130.493H473.081V167.81H463.55V162.354C462.333 164.105 460.643 165.565 458.48 166.732C456.362 167.855 453.906 168.416 451.112 168.416C447.958 168.416 445.074 167.608 442.46 165.991C439.891 164.375 437.841 162.107 436.309 159.188C434.822 156.224 434.078 152.834 434.078 149.017ZM463.55 149.151C463.55 146.861 463.099 144.908 462.198 143.291C461.297 141.63 460.08 140.372 458.548 139.519C457.016 138.621 455.371 138.172 453.613 138.172C451.856 138.172 450.233 138.598 448.746 139.452C447.259 140.305 446.043 141.562 445.096 143.224C444.195 144.84 443.744 146.771 443.744 149.017C443.744 151.262 444.195 153.238 445.096 154.944C446.043 156.606 447.259 157.886 448.746 158.784C450.279 159.682 451.901 160.131 453.613 160.131C455.371 160.131 457.016 159.704 458.548 158.851C460.08 157.953 461.297 156.696 462.198 155.079C463.099 153.418 463.55 151.442 463.55 149.151Z" fill="white"/>
<path d="M491.787 136.286C493.004 134.31 494.581 132.761 496.519 131.638C498.502 130.515 500.755 129.954 503.279 129.954V139.856H500.777C497.803 139.856 495.55 140.552 494.018 141.944C492.531 143.336 491.787 145.761 491.787 149.219V167.81H482.324V130.493H491.787V136.286Z" fill="white"/>
<path d="M544.465 148.343C544.465 149.69 544.375 150.903 544.194 151.981H516.818C517.043 154.675 517.989 156.786 519.657 158.312C521.324 159.839 523.375 160.603 525.808 160.603C529.323 160.603 531.824 159.098 533.311 156.089H543.518C542.437 159.682 540.364 162.646 537.299 164.981C534.235 167.271 530.472 168.416 526.011 168.416C522.406 168.416 519.161 167.63 516.277 166.059C513.438 164.442 511.207 162.174 509.585 159.255C508.008 156.336 507.219 152.968 507.219 149.151C507.219 145.289 508.008 141.899 509.585 138.98C511.162 136.061 513.37 133.816 516.209 132.244C519.048 130.672 522.316 129.887 526.011 129.887C529.571 129.887 532.748 130.65 535.542 132.177C538.381 133.704 540.567 135.882 542.099 138.711C543.676 141.495 544.465 144.706 544.465 148.343ZM534.663 145.649C534.618 143.224 533.739 141.293 532.027 139.856C530.315 138.374 528.219 137.633 525.741 137.633C523.397 137.633 521.414 138.351 519.792 139.788C518.215 141.181 517.246 143.134 516.885 145.649H534.663Z" fill="white"/>
<path d="M581.809 168.416C578.745 168.416 575.996 167.877 573.563 166.8C571.129 165.677 569.191 164.173 567.749 162.287C566.352 160.401 565.586 158.312 565.451 156.022H574.982C575.162 157.459 575.861 158.649 577.078 159.592C578.339 160.535 579.894 161.007 581.742 161.007C583.544 161.007 584.941 160.648 585.933 159.929C586.969 159.211 587.488 158.29 587.488 157.167C587.488 155.955 586.857 155.057 585.595 154.473C584.378 153.844 582.418 153.171 579.714 152.452C576.92 151.778 574.622 151.082 572.819 150.364C571.062 149.645 569.529 148.545 568.223 147.063C566.961 145.581 566.33 143.583 566.33 141.068C566.33 139.003 566.916 137.116 568.087 135.41C569.304 133.704 571.017 132.356 573.225 131.368C575.478 130.38 578.114 129.887 581.133 129.887C585.595 129.887 589.155 131.009 591.814 133.255C594.472 135.455 595.937 138.441 596.207 142.213H587.15C587.014 140.731 586.383 139.564 585.257 138.711C584.175 137.813 582.711 137.363 580.863 137.363C579.151 137.363 577.821 137.678 576.875 138.307C575.974 138.935 575.523 139.811 575.523 140.934C575.523 142.191 576.154 143.156 577.416 143.83C578.677 144.459 580.638 145.11 583.297 145.783C586 146.457 588.231 147.153 589.989 147.872C591.746 148.59 593.256 149.713 594.517 151.24C595.824 152.722 596.5 154.697 596.545 157.167C596.545 159.323 595.937 161.254 594.72 162.96C593.549 164.667 591.836 166.014 589.583 167.002C587.375 167.945 584.784 168.416 581.809 168.416Z" fill="white"/>
<path d="M615.332 138.239V156.292C615.332 157.549 615.625 158.47 616.211 159.053C616.841 159.592 617.878 159.862 619.32 159.862H623.714V167.81H617.765C609.789 167.81 605.801 163.948 605.801 156.224V138.239H601.339V130.493H605.801V121.264H615.332V130.493H623.714V138.239H615.332Z" fill="white"/>
<path d="M665.873 130.493V167.81H656.342V163.095C655.125 164.712 653.526 165.991 651.543 166.934C649.605 167.833 647.487 168.282 645.189 168.282C642.26 168.282 639.668 167.675 637.415 166.463C635.162 165.206 633.382 163.387 632.075 161.007C630.813 158.582 630.182 155.708 630.182 152.385V130.493H639.646V151.038C639.646 154.001 640.389 156.292 641.877 157.908C643.364 159.48 645.392 160.266 647.96 160.266C650.574 160.266 652.624 159.48 654.111 157.908C655.599 156.292 656.342 154.001 656.342 151.038V130.493H665.873Z" fill="white"/>
<path d="M672.777 149.017C672.777 145.245 673.521 141.899 675.008 138.98C676.54 136.061 678.613 133.816 681.226 132.244C683.84 130.672 686.747 129.887 689.946 129.887C692.38 129.887 694.701 130.425 696.909 131.503C699.117 132.536 700.874 133.928 702.181 135.679V117.964H711.78V167.81H702.181V162.287C701.01 164.128 699.365 165.61 697.247 166.732C695.129 167.855 692.673 168.416 689.879 168.416C686.724 168.416 683.84 167.608 681.226 165.991C678.613 164.375 676.54 162.107 675.008 159.188C673.521 156.224 672.777 152.834 672.777 149.017ZM702.249 149.151C702.249 146.861 701.798 144.908 700.897 143.291C699.996 141.63 698.779 140.372 697.247 139.519C695.715 138.621 694.07 138.172 692.312 138.172C690.555 138.172 688.932 138.598 687.445 139.452C685.958 140.305 684.741 141.562 683.795 143.224C682.894 144.84 682.443 146.771 682.443 149.017C682.443 151.262 682.894 153.238 683.795 154.944C684.741 156.606 685.958 157.886 687.445 158.784C688.978 159.682 690.6 160.131 692.312 160.131C694.07 160.131 695.715 159.704 697.247 158.851C698.779 157.953 699.996 156.696 700.897 155.079C701.798 153.418 702.249 151.442 702.249 149.151Z" fill="white"/>
<path d="M725.822 126.047C724.155 126.047 722.758 125.531 721.631 124.498C720.55 123.42 720.009 122.095 720.009 120.524C720.009 118.952 720.55 117.649 721.631 116.617C722.758 115.539 724.155 115 725.822 115C727.489 115 728.864 115.539 729.945 116.617C731.072 117.649 731.635 118.952 731.635 120.524C731.635 122.095 731.072 123.42 729.945 124.498C728.864 125.531 727.489 126.047 725.822 126.047ZM730.486 130.493V167.81H721.023V130.493H730.486Z" fill="white"/>
<path d="M756.465 168.416C752.86 168.416 749.615 167.63 746.731 166.059C743.847 164.442 741.571 162.174 739.904 159.255C738.281 156.336 737.47 152.968 737.47 149.151C737.47 145.334 738.304 141.966 739.971 139.047C741.684 136.129 744.005 133.883 746.934 132.311C749.863 130.695 753.13 129.887 756.735 129.887C760.34 129.887 763.607 130.695 766.537 132.311C769.466 133.883 771.764 136.129 773.431 139.047C775.144 141.966 776 145.334 776 149.151C776 152.968 775.121 156.336 773.364 159.255C771.651 162.174 769.308 164.442 766.334 166.059C763.405 167.63 760.115 168.416 756.465 168.416ZM756.465 160.198C758.177 160.198 759.777 159.794 761.264 158.986C762.796 158.133 764.013 156.875 764.914 155.214C765.816 153.552 766.266 151.531 766.266 149.151C766.266 145.604 765.32 142.887 763.427 141.001C761.58 139.07 759.304 138.104 756.6 138.104C753.896 138.104 751.62 139.07 749.773 141.001C747.97 142.887 747.069 145.604 747.069 149.151C747.069 152.699 747.948 155.438 749.705 157.369C751.508 159.255 753.761 160.198 756.465 160.198Z" fill="white"/>
</g>
<g filter="url(#filter1_d_108_42)">
<path d="M305.686 48.5783C310.985 49.7778 315.173 52.4337 318.249 56.5462C321.411 60.573 322.992 65.1995 322.992 70.4257C322.992 78.1365 320.343 84.1767 315.044 88.5462C309.746 92.9157 302.311 95.1004 292.739 95.1004H248V4.49799H291.329C300.559 4.49799 307.78 6.55421 312.993 10.6667C318.292 14.7791 320.941 20.5622 320.941 28.0161C320.941 33.328 319.531 37.7831 316.711 41.3815C313.976 44.8942 310.301 47.2932 305.686 48.5783ZM273.126 40.4819H285.817C292.141 40.4819 295.303 37.8688 295.303 32.6426C295.303 27.245 292.141 24.5462 285.817 24.5462H273.126V40.4819ZM287.74 74.7952C294.064 74.7952 297.226 72.1392 297.226 66.8273C297.226 64.0857 296.371 61.9866 294.662 60.5301C293.038 59.0736 290.688 58.3454 287.611 58.3454H273.126V74.7952H287.74Z" fill="white"/>
<path d="M370.667 35.7269C373.487 31.6145 376.905 28.3588 380.922 25.9598C384.939 23.5609 389.255 22.3614 393.87 22.3614V49.2209H386.819C381.349 49.2209 377.29 50.2918 374.641 52.4337C371.991 54.5756 370.667 58.3025 370.667 63.6145V95.1004H345.541V23.004H370.667V35.7269Z" fill="white"/>
<path d="M410.312 58.9879C410.312 51.5341 411.637 45.0228 414.286 39.4538C417.021 33.8849 420.696 29.6011 425.311 26.6024C430.011 23.6037 435.224 22.1044 440.95 22.1044C445.907 22.1044 450.18 23.0897 453.769 25.0602C457.359 27.0308 460.136 29.6867 462.102 33.0281V23.004H487.227V95.1004H462.102V85.0763C460.136 88.4177 457.316 91.0736 453.641 93.0442C450.052 95.0147 445.821 96 440.95 96C435.224 96 430.011 94.5007 425.311 91.502C420.696 88.5033 417.021 84.2195 414.286 78.6506C411.637 72.996 410.312 66.4418 410.312 58.9879ZM462.102 58.9879C462.102 54.3614 460.82 50.7202 458.256 48.0643C455.778 45.4083 452.701 44.0803 449.026 44.0803C445.266 44.0803 442.147 45.4083 439.668 48.0643C437.19 50.6345 435.951 54.2758 435.951 58.9879C435.951 63.6145 437.19 67.2985 439.668 70.0402C442.147 72.6961 445.266 74.0241 449.026 74.0241C452.701 74.0241 455.778 72.6961 458.256 70.0402C460.82 67.3842 462.102 63.7001 462.102 58.9879Z" fill="white"/>
<path d="M560.129 22.3614C568.418 22.3614 574.999 25.1459 579.87 30.7149C584.741 36.1981 587.177 43.6519 587.177 53.0763V95.1004H562.051V56.4177C562.051 52.3052 560.983 49.0924 558.847 46.7791C556.71 44.3802 553.847 43.1807 550.258 43.1807C546.498 43.1807 543.549 44.3802 541.413 46.7791C539.276 49.0924 538.208 52.3052 538.208 56.4177V95.1004H513.082V23.004H538.208V33.2851C540.43 30.0294 543.421 27.4163 547.181 25.4458C550.942 23.3896 555.257 22.3614 560.129 22.3614Z" fill="white"/>
<path d="M608.399 58.9879C608.399 51.5341 609.937 45.0228 613.014 39.4538C616.09 33.8849 620.364 29.6011 625.833 26.6024C631.388 23.6037 637.712 22.1044 644.805 22.1044C653.95 22.1044 661.641 24.6319 667.88 29.6867C674.119 34.656 678.135 41.6386 679.93 50.6345H653.266C651.728 45.9224 648.737 43.5663 644.293 43.5663C641.131 43.5663 638.61 44.8942 636.729 47.5502C634.935 50.1205 634.037 53.9331 634.037 58.9879C634.037 64.0428 634.935 67.8983 636.729 70.5542C638.61 73.2102 641.131 74.5381 644.293 74.5381C648.822 74.5381 651.813 72.1821 653.266 67.4699H679.93C678.135 76.3802 674.119 83.3628 667.88 88.4177C661.641 93.4726 653.95 96 644.805 96C637.712 96 631.388 94.5007 625.833 91.502C620.364 88.5033 616.09 84.2195 613.014 78.6506C609.937 73.0817 608.399 66.5274 608.399 58.9879Z" fill="white"/>
<path d="M749.208 22.3614C757.412 22.3614 763.907 25.1459 768.693 30.7149C773.564 36.1981 776 43.6519 776 53.0763V95.1004H750.874V56.4177C750.874 52.3052 749.806 49.0924 747.67 46.7791C745.533 44.3802 742.67 43.1807 739.081 43.1807C735.32 43.1807 732.372 44.3802 730.235 46.7791C728.099 49.0924 727.031 52.3052 727.031 56.4177V95.1004H701.905V0H727.031V33.2851C729.253 30.0294 732.244 27.4163 736.004 25.4458C739.85 23.3896 744.251 22.3614 749.208 22.3614Z" fill="white"/>
</g>
</g>
<defs>
<filter id="filter0_d_108_42" x="244" y="115" width="536" height="61.4164" filterUnits="userSpaceOnUse" color-interpolation-filters="sRGB">
<feFlood flood-opacity="0" result="BackgroundImageFix"/>
<feColorMatrix in="SourceAlpha" type="matrix" values="0 0 0 0 0 0 0 0 0 0 0 0 0 0 0 0 0 0 127 0" result="hardAlpha"/>
<feOffset dy="4"/>
<feGaussianBlur stdDeviation="2"/>
<feComposite in2="hardAlpha" operator="out"/>
<feColorMatrix type="matrix" values="0 0 0 0 0 0 0 0 0 0 0 0 0 0 0 0 0 0 0.25 0"/>
<feBlend mode="normal" in2="BackgroundImageFix" result="effect1_dropShadow_108_42"/>
<feBlend mode="normal" in="SourceGraphic" in2="effect1_dropShadow_108_42" result="shape"/>
</filter>
<filter id="filter1_d_108_42" x="244" y="0" width="536" height="104" filterUnits="userSpaceOnUse" color-interpolation-filters="sRGB">
<feFlood flood-opacity="0" result="BackgroundImageFix"/>
<feColorMatrix in="SourceAlpha" type="matrix" values="0 0 0 0 0 0 0 0 0 0 0 0 0 0 0 0 0 0 127 0" result="hardAlpha"/>
<feOffset dy="4"/>
<feGaussianBlur stdDeviation="2"/>
<feComposite in2="hardAlpha" operator="out"/>
<feColorMatrix type="matrix" values="0 0 0 0 0 0 0 0 0 0 0 0 0 0 0 0 0 0 0.25 0"/>
<feBlend mode="normal" in2="BackgroundImageFix" result="effect1_dropShadow_108_42"/>
<feBlend mode="normal" in="SourceGraphic" in2="effect1_dropShadow_108_42" result="shape"/>
</filter>
<clipPath id="clip0_108_42">
<rect width="1024" height="169" fill="white"/>
</clipPath>
</defs>
</svg>
