<?xml version="1.0" encoding="UTF-8"?>
<svg id="Layer_1" data-name="Layer 1" xmlns="http://www.w3.org/2000/svg" viewBox="0 0 264 264">
  <path d="M124.97,111.49v-.3c0-5.63-4.44-8.88-13.03-8.88h-18.66v18.21h18.06c8.74,0,13.62-2.96,13.62-9.03Z" style="fill: #0d111d; stroke-width: 0px;"/>
  <path d="M132,0C59.1,0,0,59.1,0,132s59.1,132,132,132,132-59.1,132-132S204.9,0,132,0ZM157.99,154.29c0,17.77-14.51,28.58-39.24,28.58h-53.45v-103.65h53.16c13.03,0,22.21,3.26,28.28,9.33,4.15,4.15,6.66,9.62,6.66,16.73v.3c0,11.99-6.81,19.1-15.99,23.1,12.59,4.15,20.58,11.25,20.58,25.32v.3ZM192.5,173c-8.56,0-15.5-6.94-15.5-15.5s6.94-15.5,15.5-15.5,15.5,6.94,15.5,15.5-6.94,15.5-15.5,15.5ZM192.5,125c-8.56,0-15.5-6.94-15.5-15.5s6.94-15.5,15.5-15.5,15.5,6.94,15.5,15.5-6.94,15.5-15.5,15.5Z" style="fill: #0d111d; stroke-width: 0px;"/>
  <path d="M115.2,140.66h-21.91v19.1h22.21c8.74,0,13.77-3.41,13.77-9.48v-.3c0-5.63-4.44-9.33-14.07-9.33Z" style="fill: #0d111d; stroke-width: 0px;"/>
</svg>