<?xml version="1.0" encoding="UTF-8"?>
<svg id="Layer_1" data-name="Layer 1" xmlns="http://www.w3.org/2000/svg" version="1.1" viewBox="0 0 52.8 53.5">
  <defs>
    <style>
      .cls-1 {
        fill: #006f53;
      }

      .cls-1, .cls-2, .cls-3, .cls-4, .cls-5, .cls-6 {
        stroke-width: 0px;
      }

      .cls-2 {
        fill: #315271;
      }

      .cls-3 {
        fill: #84476e;
      }

      .cls-4 {
        fill: #00523d;
      }

      .cls-5 {
        fill: #b05e95;
      }

      .cls-6 {
        fill: #426a8f;
      }
    </style>
  </defs>
  <g id="Refreshed">
    <g id="Green_Angle" data-name="Green Angle">
      <path id="Shape" class="cls-4" d="M26.4,11.6c.2-.3,2.6-4.8,8.7-4.7,10.1.2,9,10.1,9,10.1,0,0-3.4-4.8-8.8-4.1-5.9.7-7.1,3.5-8.9,10.8h0v-12.1h0Z"/>
      <path id="Shape-2" class="cls-1" d="M26.4,11.6c-.2-.3-2.6-4.8-8.7-4.7-10.1.2-9,10.1-9,10.1,0,0,3.4-4.8,8.8-4.1,5.9.7,7.1,3.5,8.9,10.8h0v-12.1h0Z"/>
      <circle class="cls-1" cx="26.4" cy="3.7" r="3.7"/>
    </g>
    <g id="Blue_Angle" data-name="Blue Angle">
      <path id="Shape-3" class="cls-2" d="M42.2,38.9c.2.3,2.9,4.6-.2,9.9-5.2,8.7-13.3,2.8-13.3,2.8,0,0,5.8-.5,8-5.6,2.3-5.4.5-7.9-4.9-13.1h0l10.4,6h0Z"/>
      <path id="Shape-4" class="cls-6" d="M42.2,38.9c.4,0,5.5.2,8.5-5.2,4.9-8.9-4.2-12.9-4.2-12.9,0,0,2.4,5.3-.9,9.7-3.5,4.7-6.6,4.4-13.8,2.3h0l10.4,6h0Z"/>
      <circle class="cls-6" cx="49.2" cy="42.8" r="3.7"/>
    </g>
    <g id="Pink_Angle" data-name="Pink Angle">
      <path id="Shape-5" class="cls-3" d="M10.6,38.9c-.4,0-5.5.2-8.4-5.2-4.9-8.9,4.2-12.9,4.2-12.9,0,0-2.4,5.3.9,9.7,3.5,4.7,6.6,4.4,13.8,2.3h0l-10.4,6h0Z"/>
      <path id="Shape-6" class="cls-5" d="M10.6,38.9c-.2.3-2.9,4.6.2,9.9,5.2,8.7,13.3,2.8,13.3,2.8,0,0-5.8-.5-8-5.6-2.3-5.4-.5-7.9,4.9-13.1h0l-10.4,6h0Z"/>
      <circle class="cls-5" cx="3.7" cy="42.8" r="3.7"/>
    </g>
  </g>
</svg>